HIERARCHY
ROOT Hips
{
	OFFSET 0.00000 0.00000 0.00000
	CHANNELS 6 Xposition Yposition Zposition Zrotation Yrotation Xrotation 
	JOINT LHipJoint
	{
		OFFSET 0 0 0
		CHANNELS 3 Zrotation Yrotation Xrotation
		JOINT LeftHip
		{
			OFFSET 1.42489 -1.84941 0.69647
			CHANNELS 3 Zrotation Yrotation Xrotation
			JOINT LeftKnee
			{
				OFFSET 2.44443 -6.71602 0.00000
				CHANNELS 3 Zrotation Yrotation Xrotation
				JOINT LeftAnkle
				{
					OFFSET 2.62838 -7.22137 0.00000
					CHANNELS 3 Zrotation Yrotation Xrotation
					JOINT LeftToe
					{
						OFFSET 0.24036 -0.66037 2.29953
						CHANNELS 3 Zrotation Yrotation Xrotation
						End Site
						{
							OFFSET 0.00000 -0.00000 1.19837
						}
					}
				}
			}
		}
	}
	JOINT RHipJoint
	{
		OFFSET 0 0 0
		CHANNELS 3 Zrotation Yrotation Xrotation
		JOINT RightHip
		{
			OFFSET -1.37055 -1.84941 0.69647
			CHANNELS 3 Zrotation Yrotation Xrotation
			JOINT RightKnee
			{
				OFFSET -2.54834 -7.00152 0.00000
				CHANNELS 3 Zrotation Yrotation Xrotation
				JOINT RightAnkle
				{
					OFFSET -2.65692 -7.29983 0.00000
					CHANNELS 3 Zrotation Yrotation Xrotation
					JOINT RightToe
					{
						OFFSET -0.18839 -0.51760 2.29390
						CHANNELS 3 Zrotation Yrotation Xrotation
						End Site
						{
							OFFSET -0.00000 -0.00000 1.18261
						}
					}
				}
			}
		}
	}
	JOINT lowerback
	{
		OFFSET 0 0 0
		CHANNELS 3 Zrotation Yrotation Xrotation
		JOINT Chest
		{
			OFFSET 0.05220 2.15489 0.05011
			CHANNELS 3 Zrotation Yrotation Xrotation
			JOINT Chest2
			{
				OFFSET -0.07653 2.14219 -0.05668
				CHANNELS 3 Zrotation Yrotation Xrotation
				JOINT lowerneck
				{
					OFFSET 0 0 0
					CHANNELS 3 Zrotation Yrotation Xrotation
					JOINT Neck
					{
						OFFSET 0.01370 1.58638 0.01447
						CHANNELS 3 Zrotation Yrotation Xrotation
						JOINT Head
						{
							OFFSET 0.23548 1.54190 -0.21747
							CHANNELS 3 Zrotation Yrotation Xrotation
							End Site
							{
								OFFSET 0.07132 1.59823 -0.08163
							}
						}
					}
				}
				JOINT LeftCollar
				{
					OFFSET 0 0 0
					CHANNELS 3 Zrotation Yrotation Xrotation
					JOINT LeftShoulder
					{
						OFFSET 3.47056 1.45357 -0.58896
CHANNELS 3 Zrotation Xrotation Yrotation
						JOINT LeftElbow
						{
OFFSET 0 -5.190690 0.000000
CHANNELS 3 Zrotation Xrotation Yrotation
							JOINT LeftWrist
							{
OFFSET 0 -3.300160 0.000000
CHANNELS 3 Zrotation Xrotation Yrotation
								JOINT lhand
								{
									OFFSET 0 0 0
CHANNELS 3 Zrotation Xrotation Yrotation
									JOINT LFingers
									{
OFFSET 0 -0.707700 0.000000
CHANNELS 3 Zrotation Xrotation Yrotation
										End Site
										{
OFFSET 0 -0.570560 0.000000
										}
									}
								}
								JOINT LThumb
								{
OFFSET 0 0.000000 0.000000
CHANNELS 3 Zrotation Xrotation Yrotation
									End Site
									{
OFFSET 0 -0.579280 0.579280
									}
								}
							}
						}
					}
				}
				JOINT RightCollar
				{
					OFFSET 0 0 0
					CHANNELS 3 Zrotation Yrotation Xrotation
					JOINT RightShoulder
					{
						OFFSET -2.89018 2.03305 -0.26731
CHANNELS 3 Zrotation Xrotation Yrotation
						JOINT RightElbow
						{
OFFSET 0 -5.239240 0.000000
CHANNELS 3 Zrotation Xrotation Yrotation
							JOINT RightWrist
							{
OFFSET 0 -3.329530 0.000000
CHANNELS 3 Zrotation Xrotation Yrotation
								JOINT rhand
								{
									OFFSET 0 0 0
CHANNELS 3 Zrotation Xrotation Yrotation
									JOINT RFingers
									{
OFFSET 0 -0.607410 0.000000
CHANNELS 3 Zrotation Xrotation Yrotation
										End Site
										{
OFFSET 0 -0.489710 0.000000
										}
									}
								}
								JOINT RThumb
								{
OFFSET 0 0.000000 0.000000
CHANNELS 3 Zrotation Xrotation Yrotation
									End Site
									{
OFFSET 0 -0.497190 0.497190
									}
								}
							}
						}
					}
				}
			}
		}
	}
}
MOTION
Frames: 5
Frame Time: 0.008333333333333333
9.175704 13.796850 5.671988 -5.866531 -46.657019 14.774001 0.000000 0.000000 0.000000 1.532293 -6.449453 -92.430483 25.632416 19.215665 106.680842 0.862248 -3.051902 -16.790909 1.221662 -7.010442 -19.746367 0.000000 0.000000 0.000000 24.530476 19.958239 -61.089985 -18.739075 -19.961630 86.311134 -3.254087 -6.135005 -36.603679 -0.037541 1.248520 -3.432862 3.613671 -3.399654 45.662907 -2.084998 -4.255109 18.577899 -2.466093 -2.286273 -0.444966 1.784995 2.616207 4.483634 -2.481533 3.217980 -21.765186 -1.341903 1.541112 -7.319860 0.000000 0.000000 0.000000 101.895129 -64.799100 20.020879 86.922989 -59.963280 57.335533 42.969621 -49.635691 -12.922596 0.000000 0.000000 0.000000 -7.125000 0.000000 0.000000 15.036334 46.818117 -0.689735 0.000000 0.000000 0.000000 -26.857133 -13.561232 49.812348 -130.693950 -52.711769 -94.378945 -37.274664 13.558960 4.813477 0.000000 0.000000 0.000000 7.125000 0.000000 0.000000 -8.884695 35.900160 -2.007467
9.088324 13.740822 5.798825 -6.030969 -46.866296 14.559213 0.000000 0.000000 0.000000 1.774726 -7.483299 -92.573951 23.508421 19.694900 100.310712 0.926001 -0.968063 -17.892607 1.192959 -6.930684 -19.510155 0.000000 0.000000 0.000000 24.828564 19.804929 -60.449660 -19.061257 -19.978776 87.254303 -3.420928 -6.159308 -37.455586 -0.054743 1.508481 -4.149165 3.580177 -3.381382 46.012222 -2.102613 -4.246404 18.515687 -2.456578 -2.289929 -0.595609 1.842171 2.637031 4.638385 -2.474090 3.261205 -21.707678 -1.354187 1.558706 -7.326777 0.000000 0.000000 0.000000 103.010143 -64.840622 21.802617 84.953536 -59.902767 55.631111 42.864065 -49.926998 -13.094176 0.000000 0.000000 0.000000 -7.125000 0.000000 0.000000 14.957755 47.017965 -0.761299 0.000000 0.000000 0.000000 -26.694167 -15.031670 50.001783 -130.750309 -52.688398 -94.423828 -36.548616 13.607441 5.390510 0.000000 0.000000 0.000000 7.125000 0.000000 0.000000 -8.318255 36.568337 -1.740209
8.994559 13.707581 5.927111 -6.213187 -46.983413 14.500637 0.000000 0.000000 0.000000 1.762145 -8.318619 -92.057802 21.067520 19.964439 93.123914 0.954733 0.571582 -18.684070 1.181579 -6.898701 -19.415634 0.000000 0.000000 0.000000 25.110809 19.726394 -59.772287 -19.288244 -19.987815 87.918535 -3.573049 -6.281502 -38.261277 -0.074513 1.760349 -4.843847 3.605157 -3.407888 46.056283 -2.113462 -4.269073 18.467141 -2.468049 -2.302132 -0.663606 1.896218 2.669514 4.706575 -2.431470 3.327800 -21.539108 -1.352984 1.585734 -7.282060 0.000000 0.000000 0.000000 103.577191 -65.009211 22.944427 83.088296 -59.818064 54.017963 42.725326 -50.364023 -13.227536 0.000000 0.000000 0.000000 -7.125000 0.000000 0.000000 14.838798 47.162172 -0.808783 0.000000 0.000000 0.000000 -26.447912 -16.295432 50.345555 -130.555653 -52.768887 -94.268911 -35.845889 13.671529 5.915929 0.000000 0.000000 0.000000 7.125000 0.000000 0.000000 -7.756201 37.164662 -1.506772
8.893500 13.693785 6.057684 -6.394329 -47.030836 14.567021 0.000000 0.000000 0.000000 1.485923 -8.941544 -90.950976 18.377926 19.928498 85.251003 0.957965 1.418165 -19.055013 1.201190 -6.953661 -19.578277 0.000000 0.000000 0.000000 25.366230 19.760325 -59.047415 -19.435051 -19.992309 88.348025 -3.713416 -6.520568 -39.047047 -0.097879 2.017005 -5.552790 3.668045 -3.465840 45.818195 -2.136150 -4.316990 18.431628 -2.511425 -2.320248 -0.656193 1.946618 2.713902 4.711576 -2.341081 3.420009 -21.281293 -1.335051 1.622395 -7.197676 0.000000 0.000000 0.000000 103.667091 -65.280371 23.492513 81.305905 -59.711924 52.477951 42.476572 -50.726909 -13.351434 0.000000 0.000000 0.000000 -7.125000 0.000000 0.000000 14.606371 47.273373 -0.836400 0.000000 0.000000 0.000000 -26.097509 -17.294161 50.855595 -130.167931 -52.927447 -93.959894 -35.260299 13.654243 6.348543 0.000000 0.000000 0.000000 7.125000 0.000000 0.000000 -7.279249 37.648495 -1.325893
8.784567 13.696974 6.192690 -6.567268 -47.038138 14.688958 0.000000 0.000000 0.000000 0.932610 -9.360765 -89.274283 15.549069 19.510655 76.880780 0.951291 1.717324 -19.120788 1.263092 -7.124060 -20.083519 0.000000 0.000000 0.000000 25.612354 19.901150 -58.204288 -19.512089 -19.994285 88.573271 -3.844716 -6.872511 -39.827775 -0.122739 2.258337 -6.220098 3.759377 -3.545809 45.375669 -2.185532 -4.384965 18.412786 -2.598012 -2.342250 -0.586583 1.979084 2.762931 4.689815 -2.198306 3.526117 -20.989901 -1.297166 1.663179 -7.099054 0.000000 0.000000 0.000000 103.312207 -65.627646 23.481939 79.623869 -59.588826 51.026439 42.105071 -50.868608 -13.445709 0.000000 0.000000 0.000000 -7.125000 0.000000 0.000000 14.244518 47.323454 -0.832859 0.000000 0.000000 0.000000 -25.627859 -18.002766 51.519611 -129.623270 -53.146214 -93.524688 -34.874114 13.556490 6.681900 0.000000 0.000000 0.000000 7.125000 0.000000 0.000000 -6.962850 38.021887 -1.203384
